<svg viewBox="0 0 28 28" fill="none" xmlns="http://www.w3.org/2000/svg">
<path d="M7.69513 16.8901C7.21684 17.1662 7.05296 17.7778 7.3291 18.2561C7.60525 18.7344 8.21684 18.8983 8.69513 18.6221L7.69513 16.8901ZM20.9897 11.1857C21.1326 10.6522 20.8161 10.1039 20.2826 9.96091L11.5893 7.63154C11.0558 7.4886 10.5075 7.80518 10.3645 8.33864C10.2216 8.87211 10.5382 9.42045 11.0716 9.56339L18.799 11.6339L16.7285 19.3613C16.5855 19.8948 16.9021 20.4432 17.4356 20.5861C17.969 20.729 18.5174 20.4125 18.6603 19.879L20.9897 11.1857ZM8.69513 18.6221L20.5238 11.7929L19.5238 10.0608L7.69513 16.8901L8.69513 18.6221Z" fill="currentColor"/>
</svg>
