<svg viewBox="0 0 42 49" fill="none" xmlns="http://www.w3.org/2000/svg">
<path d="M21.3438 21.5898L21.3437 2.99968" stroke="black" stroke-width="6" stroke-linecap="round"/>
<path d="M11.2035 10.9606C10.6883 10.0938 9.56247 9.8025 8.74369 10.391C5.52829 12.702 3.02092 15.8836 1.52857 19.578C-0.192479 23.8387 -0.468552 28.5462 0.74268 32.9788C1.95391 37.4114 4.58559 41.3244 8.23417 44.1177C11.8828 46.911 16.3468 48.4306 20.9419 48.4433C25.537 48.456 30.0094 46.9612 33.6734 44.188C37.3374 41.4149 39.9907 37.5166 41.2264 33.0907C42.4621 28.6649 42.2121 23.9559 40.5146 19.6858C39.0427 15.9832 36.553 12.7878 33.3504 10.459C32.5349 9.86602 31.4074 10.1511 30.8875 11.015C30.3675 11.8789 30.6535 12.9934 31.458 13.6013C33.9809 15.5074 35.9448 18.0749 37.1215 21.0347C38.5238 24.5623 38.7303 28.4525 37.7095 32.1088C36.6886 35.765 34.4967 38.9856 31.4698 41.2765C28.4429 43.5674 24.7481 44.8023 20.952 44.7918C17.1559 44.7813 13.4681 43.526 10.4539 41.2184C7.4397 38.9107 5.26562 35.6782 4.26499 32.0163C3.26437 28.3544 3.49244 24.4654 4.91423 20.9456C6.10719 17.9923 8.08529 15.4358 10.6187 13.5436C11.4266 12.9403 11.7187 11.8274 11.2035 10.9606Z" fill="black"/>
</svg>
