<svg viewBox="0 0 12 11" fill="none" xmlns="http://www.w3.org/2000/svg">
<path d="M14.316 3.7159C14.3105 3.71004 14.3089 3.70225 14.3031 3.69653C14.2974 3.69081 14.2895 3.68907 14.2836 3.68353C12.8807 2.2852 10.9808 1.5 9.00004 1.5C7.0193 1.5 5.11933 2.2852 3.71648 3.68353C3.71058 3.68907 3.70271 3.69076 3.69694 3.69653C3.69117 3.7023 3.68957 3.71003 3.68408 3.7159C2.63877 4.76621 1.92802 6.10264 1.64154 7.55652C1.35505 9.01039 1.50567 10.5166 2.07438 11.8849C2.64309 13.2533 3.6044 14.4225 4.83699 15.245C6.06958 16.0675 7.5182 16.5065 9.00004 16.5065C10.4819 16.5065 11.9305 16.0675 13.1631 15.245C14.3957 14.4225 15.357 13.2533 15.9257 11.8849C16.4944 10.5166 16.645 9.01039 16.3585 7.55652C16.0721 6.10264 15.3613 4.76621 14.316 3.7159V3.7159ZM9 15C8.1017 14.9997 7.21497 14.7973 6.4055 14.4078C5.59602 14.0184 4.88454 13.4518 4.32375 12.75H7.3352C7.54377 12.9858 7.80003 13.1745 8.08703 13.3038C8.37403 13.4331 8.68522 13.5 9 13.5C9.31478 13.5 9.62597 13.4331 9.91297 13.3038C10.2 13.1745 10.4562 12.9858 10.6648 12.75H13.6763C13.1155 13.4518 12.404 14.0184 11.5945 14.4078C10.785 14.7973 9.89831 14.9997 9 15V15ZM8.25 11.25C8.25 11.1017 8.29399 10.9567 8.3764 10.8333C8.45881 10.71 8.57594 10.6139 8.71299 10.5571C8.85003 10.5003 9.00083 10.4855 9.14632 10.5144C9.2918 10.5433 9.42544 10.6148 9.53033 10.7197C9.63522 10.8246 9.70665 10.9582 9.73559 11.1037C9.76453 11.2492 9.74968 11.4 9.69291 11.537C9.63614 11.6741 9.54001 11.7912 9.41668 11.8736C9.29334 11.956 9.14834 12 9 12C8.80115 11.9998 8.6105 11.9207 8.46989 11.7801C8.32928 11.6395 8.2502 11.4489 8.25 11.25V11.25ZM14.5577 11.2516L14.5499 11.25H11.25C11.2486 10.7862 11.1036 10.3342 10.835 9.95612C10.5665 9.578 10.1874 9.29229 9.75 9.1382V6.75C9.75 6.55109 9.67098 6.36032 9.53033 6.21967C9.38968 6.07902 9.19891 6 9 6C8.80109 6 8.61032 6.07902 8.46967 6.21967C8.32902 6.36032 8.25 6.55109 8.25 6.75V9.1382C7.81255 9.29229 7.43352 9.578 7.16495 9.95612C6.89638 10.3342 6.75143 10.7862 6.75 11.25H3.45008L3.44234 11.2516C3.24726 10.7702 3.11606 10.2654 3.0521 9.75H3.75C3.94891 9.75 4.13968 9.67098 4.28033 9.53033C4.42098 9.38968 4.5 9.19891 4.5 9C4.5 8.80109 4.42098 8.61032 4.28033 8.46967C4.13968 8.32902 3.94891 8.25 3.75 8.25H3.0521C3.18611 7.18393 3.60566 6.17387 4.26641 5.32658L4.75745 5.81763C4.82708 5.88727 4.90975 5.9425 5.00074 5.98019C5.09172 6.01788 5.18924 6.03727 5.28772 6.03727C5.3862 6.03727 5.48372 6.01788 5.5747 5.98019C5.66569 5.9425 5.74836 5.88726 5.81799 5.81763C5.88763 5.74799 5.94287 5.66532 5.98056 5.57433C6.01824 5.48335 6.03764 5.38583 6.03764 5.28735C6.03764 5.18887 6.01824 5.09135 5.98055 5.00037C5.94287 4.90938 5.88763 4.82671 5.81799 4.75708L5.327 4.26608C6.17422 3.60556 7.18411 3.18613 8.25 3.05209V3.75C8.25 3.94891 8.32902 4.13968 8.46967 4.28033C8.61032 4.42098 8.80109 4.5 9 4.5C9.19891 4.5 9.38968 4.42098 9.53033 4.28033C9.67098 4.13968 9.75 3.94891 9.75 3.75V3.05209C10.8159 3.18613 11.8258 3.60556 12.673 4.26608L12.182 4.75708C12.0414 4.89771 11.9624 5.08846 11.9624 5.28735C11.9624 5.48624 12.0414 5.67699 12.182 5.81763C12.3226 5.95826 12.5134 6.03727 12.7123 6.03727C12.9112 6.03727 13.1019 5.95827 13.2426 5.81763L13.7336 5.32658C14.3943 6.17387 14.8139 7.18393 14.9479 8.25H14.25C14.0511 8.25 13.8603 8.32902 13.7197 8.46967C13.579 8.61032 13.5 8.80109 13.5 9C13.5 9.19891 13.579 9.38968 13.7197 9.53033C13.8603 9.67098 14.0511 9.75 14.25 9.75H14.9479C14.8839 10.2654 14.7527 10.7702 14.5577 11.2516V11.2516Z" fill="currentColor" fill-opacity="0.9"/>
</svg>
