<svg viewBox="0 0 21 20" fill="none" xmlns="http://www.w3.org/2000/svg">
<path d="M10.0653 5.83333C10.3949 5.83333 10.7172 5.73559 10.9913 5.55245C11.2653 5.36931 11.479 5.10902 11.6051 4.80447C11.7312 4.49993 11.7643 4.16482 11.6999 3.84152C11.6356 3.51822 11.4769 3.22124 11.2438 2.98816C11.0107 2.75507 10.7138 2.59633 10.3905 2.53203C10.0672 2.46772 9.73204 2.50072 9.4275 2.62687C9.12295 2.75301 8.86266 2.96664 8.67952 3.24072C8.49639 3.5148 8.39864 3.83703 8.39864 4.16667C8.39864 4.60869 8.57423 5.03262 8.88679 5.34518C9.19935 5.65774 9.62328 5.83333 10.0653 5.83333ZM10.0653 14.1667C9.73567 14.1667 9.41344 14.2644 9.13935 14.4476C8.86527 14.6307 8.65165 14.891 8.5255 15.1955C8.39936 15.5001 8.36635 15.8352 8.43066 16.1585C8.49497 16.4818 8.6537 16.7788 8.88679 17.0118C9.11988 17.2449 9.41685 17.4037 9.74015 17.468C10.0635 17.5323 10.3986 17.4993 10.7031 17.3731C11.0077 17.247 11.268 17.0334 11.4511 16.7593C11.6342 16.4852 11.732 16.163 11.732 15.8333C11.732 15.3913 11.5564 14.9674 11.2438 14.6548C10.9313 14.3423 10.5073 14.1667 10.0653 14.1667ZM10.0653 8.33333C9.73567 8.33333 9.41344 8.43108 9.13935 8.61422C8.86527 8.79735 8.65165 9.05765 8.5255 9.3622C8.39936 9.66674 8.36635 10.0018 8.43066 10.3252C8.49497 10.6485 8.6537 10.9454 8.88679 11.1785C9.11988 11.4116 9.41685 11.5703 9.74015 11.6346C10.0635 11.699 10.3986 11.6659 10.7031 11.5398C11.0077 11.4137 11.268 11.2 11.4511 10.926C11.6342 10.6519 11.732 10.3296 11.732 10C11.732 9.55797 11.5564 9.13405 11.2438 8.82149C10.9313 8.50893 10.5073 8.33333 10.0653 8.33333Z" fill="currentColor" fill-opacity="0.8"/>
</svg>
