<svg viewBox="0 0 2254 640" fill="none" xmlns="http://www.w3.org/2000/svg">
<path
    d="M373.12 273.996C373.12 213.349 323.956 164.186 263.31 164.186V164.186V530.189C263.31 590.836 312.474 639.999 373.12 639.999V639.999V273.996Z"
    fill="#A9D4B6"
  />
<path
    d="M139.941 370.693C139.941 310.046 189.105 260.883 249.752 260.883V260.883V494.761C249.752 555.407 200.588 604.571 139.941 604.571V604.571V370.693Z"
    fill="#A9D4B6"
  />
<path
    d="M386.678 165.596C386.678 104.949 435.842 55.7852 496.488 55.7852V55.7852V430.988C496.488 491.635 447.324 540.799 386.678 540.799V540.799V165.596Z"
    fill="#A9D4B6"
  />
<path
    d="M507.795 54.8801C507.795 24.5706 532.366 0 562.675 0V0C592.984 0 617.555 24.5706 617.555 54.8801V54.8801C617.555 85.1895 592.984 109.76 562.675 109.76V109.76C532.366 109.76 507.795 85.1895 507.795 54.8801V54.8801Z"
    fill="#A9D4B6"
  />
<path
    d="M16.4873 557.26C16.4873 496.613 65.6511 447.449 126.298 447.449V447.449V530.189C126.298 590.836 77.1339 640 16.4873 640V640V557.26Z"
    fill="#A9D4B6"
  />
<path
    d="M0 600.039C338.74 600.039 257.218 53.707 623.008 53.707"
    stroke="#012E0F"
    stroke-width="8"
  />
<path
    d="M976.066 96.2682V140.389C955.652 111.414 914.824 91 870.703 91C769.291 91 712 163.437 712 262.215C712 360.993 769.291 433.43 871.362 433.43C918.117 433.43 960.262 414.333 976.066 386.017V440.015C976.066 480.185 948.409 509.16 910.214 509.16H810.119C780.661 509.16 756.779 533.041 756.779 562.5V562.5H916.8C989.237 562.5 1039.94 513.77 1039.94 443.966V96.2682H976.066ZM878.605 377.456C817.363 377.456 777.193 332.018 777.193 262.215C777.193 192.412 817.363 146.974 878.605 146.974C940.506 146.974 980.676 192.412 980.676 262.215C980.676 332.018 940.506 377.456 878.605 377.456Z"
    fill="#A9D4B6"
  />
<path
    d="M1316.23 151.584V96.2682H1276.06C1229.31 96.2682 1202.97 116.024 1187.82 160.145V96.2682H1123.95V428.162H1187.82V278.02C1187.82 205.582 1207.58 151.584 1268.16 151.584H1316.23Z"
    fill="#A9D4B6"
  />
<path
    d="M1488.42 91C1410.05 91 1350.78 139.73 1345.52 204.924H1404.78C1406.76 171.339 1440.34 142.365 1486.44 142.365C1537.8 142.365 1566.78 170.022 1566.78 210.192C1566.78 222.045 1559.54 229.948 1544.39 229.948H1475.24C1396.88 229.948 1346.17 269.459 1346.17 333.335C1346.17 392.602 1390.95 433.43 1458.78 433.43C1508.83 433.43 1550.97 409.723 1566.78 374.163V428.162H1630.66V214.143C1630.66 140.389 1574.02 91 1488.42 91ZM1471.29 382.724C1434.42 382.724 1409.39 362.31 1409.39 332.018C1409.39 297.117 1437.71 274.727 1481.17 274.727H1566.78V282.629C1566.78 343.872 1531.88 382.724 1471.29 382.724Z"
    fill="#A9D4B6"
  />
<path
    d="M1821.21 433.43C1896.28 433.43 1945.67 394.577 1945.67 333.994C1945.67 182.534 1756.02 266.825 1756.02 184.51C1756.02 158.828 1779.06 141.706 1813.31 141.706C1841.62 141.706 1878.5 156.852 1883.11 195.046H1943.04C1939.74 132.487 1888.38 91 1813.31 91C1744.16 91 1695.43 129.194 1695.43 186.485C1695.43 328.067 1883.77 247.069 1883.77 335.311C1883.77 359.676 1859.4 380.09 1821.21 380.09C1778.41 380.09 1750.75 358.359 1746.8 320.165H1686.87C1691.48 389.968 1743.5 433.43 1821.21 433.43Z"
    fill="#A9D4B6"
  />
<path
    d="M2128.6 433.43C2203.68 433.43 2253.06 394.577 2253.06 333.994C2253.06 182.534 2063.41 266.825 2063.41 184.51C2063.41 158.828 2086.46 141.706 2120.7 141.706C2149.02 141.706 2185.9 156.852 2190.5 195.046H2250.43C2247.14 132.487 2195.77 91 2120.7 91C2051.56 91 2002.83 129.194 2002.83 186.485C2002.83 328.067 2191.16 247.069 2191.16 335.311C2191.16 359.676 2166.8 380.09 2128.6 380.09C2085.8 380.09 2058.14 358.359 2054.19 320.165H1994.27C1998.88 389.968 2050.9 433.43 2128.6 433.43Z"
    fill="#A9D4B6"
  />
</svg>
