<svg viewBox="0 0 15 14" fill="none" xmlns="http://www.w3.org/2000/svg">
<path d="M7.56417 8.97749L5.30083 11.2408C5.16697 11.3752 5.00788 11.4819 4.8327 11.5546C4.65752 11.6274 4.46969 11.6648 4.28 11.6648C4.09031 11.6648 3.90248 11.6274 3.7273 11.5546C3.55212 11.4819 3.39304 11.3752 3.25917 11.2408C3.12407 11.1073 3.01681 10.9484 2.9436 10.7732C2.87039 10.5979 2.83269 10.4099 2.83269 10.22C2.83269 10.0301 2.87039 9.84205 2.9436 9.66682C3.01681 9.49158 3.12407 9.33262 3.25917 9.19915L5.5225 6.93582C5.63234 6.82598 5.69405 6.677 5.69405 6.52165C5.69405 6.36631 5.63234 6.21733 5.5225 6.10749C5.41266 5.99764 5.26368 5.93593 5.10833 5.93593C4.95299 5.93593 4.80401 5.99764 4.69417 6.10749L2.43083 8.37665C1.97488 8.87295 1.72828 9.52621 1.74254 10.2C1.75681 10.8738 2.03083 11.516 2.50739 11.9926C2.98394 12.4692 3.62618 12.7432 4.29998 12.7574C4.97378 12.7717 5.62704 12.5251 6.12333 12.0692L8.3925 9.80582C8.50234 9.69598 8.56405 9.547 8.56405 9.39165C8.56405 9.23631 8.50234 9.08733 8.3925 8.97749C8.28266 8.86764 8.13368 8.80593 7.97833 8.80593C7.82299 8.80593 7.67401 8.86764 7.56417 8.97749V8.97749ZM5.65083 8.84915C5.70534 8.90322 5.76998 8.94599 5.84106 8.97502C5.91213 9.00405 5.98823 9.01876 6.065 9.01832C6.14177 9.01876 6.21787 9.00405 6.28895 8.97502C6.36002 8.94599 6.42466 8.90322 6.47917 8.84915L9.34917 5.97915C9.45901 5.86931 9.52072 5.72033 9.52072 5.56499C9.52072 5.40964 9.45901 5.26066 9.34917 5.15082C9.23932 5.04098 9.09034 4.97927 8.935 4.97927C8.77966 4.97927 8.63068 5.04098 8.52083 5.15082L5.65083 8.02082C5.59616 8.07505 5.55276 8.13957 5.52315 8.21065C5.49353 8.28173 5.47829 8.35798 5.47829 8.43499C5.47829 8.51199 5.49353 8.58824 5.52315 8.65932C5.55276 8.73041 5.59616 8.79492 5.65083 8.84915ZM12.75 10.5H12.1667V9.91665C12.1667 9.76194 12.1052 9.61357 11.9958 9.50417C11.8864 9.39478 11.738 9.33332 11.5833 9.33332C11.4286 9.33332 11.2803 9.39478 11.1709 9.50417C11.0615 9.61357 11 9.76194 11 9.91665V10.5H10.4167C10.262 10.5 10.1136 10.5614 10.0042 10.6708C9.89479 10.7802 9.83333 10.9286 9.83333 11.0833C9.83333 11.238 9.89479 11.3864 10.0042 11.4958C10.1136 11.6052 10.262 11.6667 10.4167 11.6667H11V12.25C11 12.4047 11.0615 12.5531 11.1709 12.6625C11.2803 12.7719 11.4286 12.8333 11.5833 12.8333C11.738 12.8333 11.8864 12.7719 11.9958 12.6625C12.1052 12.5531 12.1667 12.4047 12.1667 12.25V11.6667H12.75C12.9047 11.6667 13.0531 11.6052 13.1625 11.4958C13.2719 11.3864 13.3333 11.238 13.3333 11.0833C13.3333 10.9286 13.2719 10.7802 13.1625 10.6708C13.0531 10.5614 12.9047 10.5 12.75 10.5ZM10.3058 7.89249L12.5692 5.62332C13.0251 5.12702 13.2717 4.47376 13.2575 3.79996C13.2432 3.12616 12.9692 2.48393 12.4926 2.00737C12.0161 1.53082 11.3738 1.25679 10.7 1.24253C10.0262 1.22826 9.37296 1.47486 8.87667 1.93082L6.6075 4.19415C6.55311 4.24854 6.50997 4.31311 6.48053 4.38417C6.4511 4.45524 6.43595 4.5314 6.43595 4.60832C6.43595 4.68524 6.4511 4.7614 6.48053 4.83246C6.50997 4.90353 6.55311 4.9681 6.6075 5.02249C6.66189 5.07687 6.72646 5.12002 6.79752 5.14945C6.86859 5.17889 6.94475 5.19404 7.02167 5.19404C7.09859 5.19404 7.17475 5.17889 7.24581 5.14945C7.31688 5.12002 7.38145 5.07687 7.43583 5.02249L9.69917 2.75915C9.83304 2.62476 9.99212 2.51812 10.1673 2.44535C10.3425 2.37259 10.5303 2.33513 10.72 2.33513C10.9097 2.33513 11.0975 2.37259 11.2727 2.44535C11.4479 2.51812 11.607 2.62476 11.7408 2.75915C11.8759 2.89262 11.9832 3.05158 12.0564 3.22682C12.1296 3.40205 12.1673 3.59007 12.1673 3.77999C12.1673 3.9699 12.1296 4.15792 12.0564 4.33315C11.9832 4.50839 11.8759 4.66735 11.7408 4.80082L9.4775 7.06415C9.42283 7.11838 9.37943 7.1829 9.34981 7.25398C9.3202 7.32507 9.30495 7.40131 9.30495 7.47832C9.30495 7.55533 9.3202 7.63157 9.34981 7.70266C9.37943 7.77374 9.42283 7.83826 9.4775 7.89249C9.53173 7.94716 9.59625 7.99056 9.66733 8.02017C9.73842 8.04979 9.81466 8.06503 9.89167 8.06503C9.96868 8.06503 10.0449 8.04979 10.116 8.02017C10.1871 7.99056 10.2516 7.94716 10.3058 7.89249V7.89249Z" fill="currentColor" fill-opacity="0.9"/>
</svg>
