<svg viewBox="0 0 30 30" fill="none" xmlns="http://www.w3.org/2000/svg">
<path d="M28.8451 11.4657C28.9393 11.3741 29.0127 11.2632 29.0599 11.1405C29.1072 11.0179 29.1274 10.8865 29.119 10.7553C29.1106 10.6242 29.0739 10.4964 29.0114 10.3808C28.9489 10.2652 28.8621 10.1645 28.7569 10.0857C24.7595 7.1793 19.9424 5.61738 15.0001 5.62503C9.86068 5.62503 5.10568 7.27878 1.24318 10.0857C1.13788 10.1643 1.0509 10.2649 0.988223 10.3805C0.925544 10.496 0.888656 10.6237 0.880102 10.7549C0.871547 10.8861 0.89153 11.0175 0.938672 11.1402C0.985815 11.2629 1.059 11.374 1.15318 11.4657C1.31704 11.6271 1.53287 11.7251 1.76223 11.7422C1.9916 11.7594 2.21961 11.6946 2.40568 11.5594C6.07157 8.91376 10.4792 7.4931 15.0001 7.50003C19.7007 7.50003 24.0507 9.00378 27.5926 11.5575C27.9769 11.835 28.5113 11.8013 28.8451 11.4657Z" fill="currentColor"/>
<path d="M24.8044 15.5081C24.901 15.4149 24.9756 15.3014 25.0229 15.1757C25.0701 15.05 25.0887 14.9154 25.0774 14.7816C25.0661 14.6479 25.0251 14.5183 24.9575 14.4023C24.8898 14.2864 24.7972 14.1869 24.6863 14.1113C21.8033 12.2385 18.4379 11.2444 15 11.25C11.4282 11.25 8.10002 12.3 5.31377 14.1113C5.20231 14.1865 5.10912 14.2857 5.04105 14.4017C4.97298 14.5177 4.93177 14.6474 4.92044 14.7814C4.90911 14.9154 4.92795 15.0503 4.97557 15.176C5.0232 15.3018 5.0984 15.4153 5.19565 15.5081C5.35541 15.6641 5.56342 15.7611 5.78555 15.7832C6.00769 15.8054 6.23075 15.7513 6.41815 15.63C8.97944 13.9895 11.9584 13.12 15 13.125C18.041 13.1203 21.0193 13.9899 23.58 15.63C23.9663 15.8775 24.48 15.8325 24.8044 15.5081ZM20.7113 19.6013C21.135 19.1775 21.0582 18.4669 20.5238 18.195C18.8128 17.3244 16.9198 16.872 15 16.875C13.0125 16.875 11.1338 17.3513 9.47627 18.195C8.9419 18.4669 8.86502 19.1775 9.28877 19.6013L9.3169 19.6294C9.6169 19.9294 10.08 19.9856 10.4625 19.7981C11.8748 19.106 13.4272 18.7474 15 18.75C16.6275 18.75 18.1688 19.1269 19.5375 19.8C19.9182 19.9875 20.3813 19.9313 20.6813 19.6294L20.7113 19.6013ZM16.9875 23.325C17.355 22.9575 17.3588 22.35 16.9125 22.0875C16.3341 21.7432 15.6732 21.5618 15 21.5625C14.3268 21.5618 13.666 21.7432 13.0875 22.0875C12.6413 22.35 12.645 22.9575 13.0125 23.325L14.3363 24.6488C14.5121 24.8245 14.7505 24.9233 14.9991 24.9233C15.2477 24.9233 15.4861 24.8245 15.6619 24.6488L16.9875 23.3231V23.325Z" fill="currentColor"/>
</svg>
