<svg viewBox="0 0 30 30" fill="none" xmlns="http://www.w3.org/2000/svg">
<path d="M20.0738 6.17648C18.4076 5.80925 16.7063 5.62441 15.0001 5.62523C9.86068 5.62523 5.10568 7.27898 1.24318 10.0859C1.13788 10.1645 1.0509 10.2651 0.988223 10.3807C0.925544 10.4962 0.888656 10.6239 0.880102 10.7551C0.871547 10.8863 0.89153 11.0177 0.938672 11.1404C0.985815 11.2631 1.059 11.3742 1.15318 11.4659C1.31704 11.6273 1.53287 11.7253 1.76223 11.7424C1.9916 11.7596 2.21961 11.6948 2.40568 11.5596C6.07157 8.91396 10.4792 7.4933 15.0001 7.50023C16.1813 7.50023 17.3419 7.59398 18.4726 7.77773L20.0738 6.17648ZM15.0001 11.2502C11.4282 11.2502 8.10005 12.3002 5.3138 14.1115C5.20234 14.1867 5.10914 14.2859 5.04108 14.4019C4.97301 14.5179 4.93179 14.6477 4.92046 14.7816C4.90913 14.9156 4.92797 15.0505 4.9756 15.1762C5.02322 15.302 5.09843 15.4155 5.19568 15.5084C5.35543 15.6643 5.56344 15.7613 5.78558 15.7834C6.00771 15.8056 6.23078 15.7515 6.41818 15.6302C8.40693 14.3557 10.6556 13.5421 12.9994 13.249L15.0001 11.2502ZM19.8675 13.8827L21.3394 12.4109C22.5207 12.8609 23.6401 13.4327 24.6863 14.1115C24.7972 14.1871 24.8898 14.2866 24.9575 14.4025C25.0252 14.5185 25.0661 14.6481 25.0774 14.7818C25.0887 14.9156 25.0701 15.0502 25.0229 15.1759C24.9757 15.3016 24.901 15.4151 24.8044 15.5084C24.6447 15.6643 24.4367 15.7613 24.2145 15.7834C23.9924 15.8056 23.7693 15.7515 23.5819 15.6302C22.4253 14.8895 21.1773 14.3021 19.8694 13.8827H19.8675ZM15.0001 18.7502L16.7494 17.0009C18.0646 17.1891 19.3398 17.5926 20.5238 18.1952C21.0582 18.4671 21.135 19.1777 20.7113 19.6015L20.6832 19.6296C20.5335 19.7734 20.3427 19.867 20.1374 19.8972C19.932 19.9275 19.7223 19.8929 19.5376 19.7984C18.1252 19.1062 16.5729 18.7476 15.0001 18.7502ZM24.1969 9.55335L25.5976 8.15273C26.7038 8.71523 27.7594 9.3621 28.7569 10.084C28.8624 10.1628 28.9495 10.2636 29.0122 10.3794C29.0749 10.4951 29.1117 10.6232 29.1201 10.7546C29.1285 10.886 29.1082 11.0176 29.0607 11.1404C29.0133 11.2632 28.9397 11.3743 28.8451 11.4659C28.6812 11.6273 28.4654 11.7253 28.236 11.7424C28.0066 11.7596 27.7786 11.6948 27.5926 11.5596C26.5244 10.7885 25.3877 10.1169 24.1969 9.55335ZM16.9126 22.0877C17.3588 22.3502 17.3551 22.9577 16.9876 23.3252L15.6619 24.649C15.4861 24.8247 15.2477 24.9235 14.9991 24.9235C14.7505 24.9235 14.5121 24.8247 14.3363 24.649L13.0107 23.3234C12.6451 22.9577 12.6413 22.3521 13.0857 22.0859C13.6649 21.7419 14.3264 21.5611 15.0001 21.5627C15.7013 21.5627 16.3557 21.754 16.9144 22.0877H16.9126ZM25.0782 3.51585C25.2647 3.32937 25.5176 3.22461 25.7813 3.22461C26.045 3.22461 26.2979 3.32937 26.4844 3.51585C26.6709 3.70233 26.7757 3.95526 26.7757 4.21898C26.7757 4.4827 26.6709 4.73562 26.4844 4.9221L6.32818 25.0784C6.23584 25.1707 6.12622 25.2439 6.00558 25.2939C5.88494 25.3439 5.75563 25.3696 5.62505 25.3696C5.49447 25.3696 5.36516 25.3439 5.24452 25.2939C5.12388 25.2439 5.01426 25.1707 4.92193 25.0784C4.82959 24.986 4.75635 24.8764 4.70637 24.7558C4.6564 24.6351 4.63068 24.5058 4.63068 24.3752C4.63068 24.2446 4.6564 24.1153 4.70637 23.9947C4.75635 23.8741 4.82959 23.7644 4.92193 23.6721L25.0782 3.51585Z" fill="currentColor"/>
</svg>
