<svg viewBox="0 0 30 30" fill="none" xmlns="http://www.w3.org/2000/svg">
<path d="M20.7112 19.6013C21.135 19.1775 21.0581 18.4669 20.5237 18.195C18.8128 17.3244 16.9197 16.872 15 16.875C13.0125 16.875 11.1337 17.3513 9.47623 18.195C8.94185 18.4669 8.86498 19.1775 9.28873 19.6013L9.31685 19.6294C9.61685 19.9294 10.08 19.9856 10.4625 19.7981C11.8748 19.106 13.4272 18.7474 15 18.75C16.6275 18.75 18.1687 19.1269 19.5375 19.8C19.9181 19.9875 20.3812 19.9313 20.6831 19.6294L20.7112 19.6013V19.6013ZM16.9875 23.325C17.355 22.9575 17.3587 22.35 16.9125 22.0875C16.334 21.7432 15.6732 21.5618 15 21.5625C14.3268 21.5618 13.6659 21.7432 13.0875 22.0875C12.6412 22.35 12.645 22.9575 13.0125 23.325L14.3362 24.6488C14.512 24.8245 14.7504 24.9233 14.999 24.9233C15.2476 24.9233 15.486 24.8245 15.6619 24.6488L16.9894 23.3231L16.9875 23.325Z" fill="currentColor"/>
</svg>
