<svg viewBox="0 0 30 30" fill="none" xmlns="http://www.w3.org/2000/svg">
<path d="M24.8044 15.5081C25.2094 15.1031 25.1682 14.4244 24.6863 14.1113C21.8032 12.2386 18.4379 11.2445 15 11.25C11.4282 11.25 8.10002 12.3 5.31377 14.1113C5.20231 14.1865 5.10912 14.2857 5.04105 14.4017C4.97298 14.5177 4.93177 14.6474 4.92044 14.7814C4.90911 14.9154 4.92795 15.0503 4.97557 15.176C5.0232 15.3018 5.0984 15.4153 5.19565 15.5081C5.35541 15.6641 5.56342 15.7611 5.78555 15.7832C6.00769 15.8054 6.23075 15.7513 6.41815 15.63C8.97944 13.9895 11.9584 13.12 15 13.125C18.0417 13.12 21.0206 13.9895 23.5819 15.63C23.9663 15.8775 24.4819 15.8325 24.8044 15.5081ZM20.7113 19.6013C21.135 19.1775 21.0582 18.4669 20.5238 18.195C18.8128 17.3244 16.9198 16.872 15 16.875C13.0125 16.875 11.1338 17.3513 9.47627 18.195C8.9419 18.4669 8.86502 19.1775 9.28877 19.6013L9.3169 19.6294C9.6169 19.9294 10.0819 19.9856 10.4625 19.7981C11.8748 19.106 13.4272 18.7474 15 18.75C16.6275 18.75 18.1688 19.1269 19.5375 19.8C19.9182 19.9875 20.3813 19.9313 20.6832 19.6294L20.7113 19.6013ZM16.9875 23.325C17.355 22.9575 17.3588 22.35 16.9125 22.0875C16.3341 21.7432 15.6732 21.5618 15 21.5625C14.3268 21.5618 13.666 21.7432 13.0875 22.0875C12.6413 22.35 12.645 22.9575 13.0125 23.325L14.3363 24.6488C14.4234 24.7361 14.5268 24.8053 14.6407 24.8526C14.7546 24.8999 14.8767 24.9242 15 24.9242C15.1233 24.9242 15.2454 24.8999 15.3593 24.8526C15.4732 24.8053 15.5767 24.7361 15.6638 24.6488L16.9894 23.3231L16.9875 23.325Z" fill="currentColor"/>
</svg>
