<svg width="99" height="30" viewBox="0 0 99 30" fill="none" xmlns="http://www.w3.org/2000/svg">
<path d="M20.9047 2.75781C19.7447 2.75781 18.8042 3.69779 18.8042 4.85731C18.8042 5.05377 18.8312 5.24393 18.8817 5.42428C20.0695 4.93416 21.4245 4.64701 22.9922 4.62229C22.8753 3.57339 21.9853 2.75781 20.9047 2.75781Z" fill="#191A23"/>
<path d="M23 5.00598C21.478 5.02977 20.1667 5.30782 19.0188 5.78287C19.3611 6.47826 20.077 6.9568 20.9047 6.9568C22.0148 6.9568 22.9237 6.09612 23 5.00598Z" fill="#191A23"/>
<path d="M18.3715 5.65202V4.89193C16.0503 4.89193 14.1686 6.77275 14.1686 9.09287V9.23487C14.5141 8.78166 14.8786 8.34987 15.2665 7.94534C16.1602 7.01333 17.1778 6.22613 18.3715 5.65202Z" fill="#191A23"/>
<path d="M14.1686 9.88008C14.5953 9.28548 15.0503 8.72523 15.5435 8.21094C16.3647 7.35447 17.2919 6.62538 18.3715 6.07986V19.2457C18.3715 21.5658 16.4898 23.4467 14.1686 23.4467V9.88008Z" fill="#191A23"/>
<path d="M12.9853 10.9721C12.2379 9.80926 10.9324 9.03893 9.44686 9.03893V17.7287C9.83323 16.9903 10.209 16.2318 10.5871 15.4684L10.5879 15.4668C10.6356 15.3705 10.6834 15.274 10.7313 15.1775C11.4403 13.7474 12.1633 12.3078 12.9853 10.9721Z" fill="#191A23"/>
<path d="M9.44686 18.5455C9.95657 17.6062 10.4391 16.6319 10.9212 15.6586C10.9725 15.5551 11.0238 15.4515 11.0751 15.3479C11.7544 13.9779 12.4387 12.6165 13.2027 11.3526C13.4887 11.92 13.6497 12.5611 13.6497 13.2398V27.2417C11.3286 27.2417 9.44686 25.3609 9.44686 23.0408V18.5455Z" fill="#191A23"/>
<path d="M8.92794 18.6933V12.7382C6.60675 12.7382 4.72505 14.619 4.72505 16.9391V23.8888C5.35484 23.4387 5.92558 22.9095 6.45239 22.3195C7.39006 21.2692 8.18731 20.0278 8.92794 18.6933Z" fill="#191A23"/>
<path d="M4.72505 24.3556C5.46828 23.8561 6.13275 23.2537 6.73865 22.5751C7.55759 21.6578 8.27044 20.6001 8.92794 19.4703V21.6854C8.92794 24.0055 7.04625 25.8863 4.72505 25.8863V24.3556Z" fill="#191A23"/>
<path d="M3.99125 24.3607C4.12856 23.9456 4.20288 23.5019 4.20288 23.0408V19.8755C1.88169 19.8755 0 21.7563 0 24.0764V25.5038C1.55697 25.4171 2.86404 25.0081 3.99125 24.3607Z" fill="#191A23"/>
<path d="M0 25.8881C1.4398 25.8107 2.67691 25.4674 3.75921 24.9215C3.06889 26.2973 1.64478 27.2417 0 27.2417V25.8881Z" fill="#191A23"/>
<path d="M43.4807 5.22346V7.09497C42.5931 5.86592 40.8181 5 38.8999 5C34.4908 5 32 8.07263 32 12.2626C32 16.4525 34.4908 19.5251 38.9285 19.5251C40.9612 19.5251 42.7935 18.7151 43.4807 17.514V19.8045C43.4807 21.5084 42.2782 22.7374 40.6177 22.7374H33.9468V25H40.904C44.0533 25 46.2578 22.933 46.2578 19.9721V5.22346H43.4807ZM39.2434 17.1508C36.5808 17.1508 34.8344 15.2235 34.8344 12.2626C34.8344 9.30168 36.5808 7.3743 39.2434 7.3743C41.9346 7.3743 43.6811 9.30168 43.6811 12.2626C43.6811 15.2235 41.9346 17.1508 39.2434 17.1508Z" fill="#191A23"/>
<path d="M58.2699 7.56983V5.22346H56.5235C54.4907 5.22346 53.3455 6.06145 52.687 7.93296V5.22346H49.9099V19.3017H52.687V12.933C52.687 9.86033 53.5459 7.56983 56.1799 7.56983H58.2699Z" fill="#191A23"/>
<path d="M65.7558 5C62.3488 5 59.7721 7.06704 59.543 9.8324H62.1197C62.2056 8.40782 63.6658 7.17877 65.6699 7.17877C67.903 7.17877 69.1628 8.35196 69.1628 10.0559C69.1628 10.5587 68.8478 10.8939 68.1893 10.8939H65.1832C61.7762 10.8939 59.5717 12.5698 59.5717 15.2793C59.5717 17.7933 61.5185 19.5251 64.4674 19.5251C66.6433 19.5251 68.4756 18.5196 69.1628 17.0112V19.3017H71.9399V10.2235C71.9399 7.09497 69.4777 5 65.7558 5ZM65.0114 17.3743C63.4081 17.3743 62.3202 16.5084 62.3202 15.2235C62.3202 13.743 63.5513 12.7933 65.4408 12.7933H69.1628V13.1285C69.1628 15.7263 67.6454 17.3743 65.0114 17.3743Z" fill="#191A23"/>
<path d="M80.2245 19.5251C83.4883 19.5251 85.6356 17.8771 85.6356 15.3073C85.6356 8.88268 77.3901 12.4581 77.3901 8.96648C77.3901 7.8771 78.3922 7.15084 79.8809 7.15084C81.112 7.15084 82.7153 7.7933 82.9157 9.41341H85.521C85.3779 6.75978 83.1447 5 79.8809 5C76.8748 5 74.7561 6.62011 74.7561 9.05028C74.7561 15.0559 82.9443 11.6201 82.9443 15.3631C82.9443 16.3966 81.885 17.2626 80.2245 17.2626C78.3635 17.2626 77.1611 16.3408 76.9893 14.7207H74.3839C74.5844 17.6816 76.8461 19.5251 80.2245 19.5251Z" fill="#191A23"/>
<path d="M93.5889 19.5251C96.8527 19.5251 99 17.8771 99 15.3073C99 8.88268 90.7545 12.4581 90.7545 8.96648C90.7545 7.8771 91.7566 7.15084 93.2453 7.15084C94.4764 7.15084 96.0797 7.7933 96.2801 9.41341H98.8855C98.7423 6.75978 96.5092 5 93.2453 5C90.2392 5 88.1206 6.62011 88.1206 9.05028C88.1206 15.0559 96.3088 11.6201 96.3088 15.3631C96.3088 16.3966 95.2495 17.2626 93.5889 17.2626C91.728 17.2626 90.5255 16.3408 90.3537 14.7207H87.7484C87.9488 17.6816 90.2106 19.5251 93.5889 19.5251Z" fill="#191A23"/>
</svg>
