<svg viewBox="0 0 157 192" fill="none" xmlns="http://www.w3.org/2000/svg">
<path d="M121.843 0C116.497 0 112.163 4.33825 112.163 9.68977C112.163 10.5965 112.287 11.4741 112.52 12.3065C117.994 10.0444 124.239 8.71918 131.464 8.6051C130.925 3.76413 126.823 0 121.843 0Z" fill="#191A23"/>
<path d="M131.5 10.3759C124.486 10.4857 118.442 11.769 113.152 13.9615C114.729 17.1709 118.029 19.3795 121.843 19.3795C126.959 19.3795 131.148 15.4072 131.5 10.3759Z" fill="#191A23"/>
<path d="M110.169 13.3576V9.84957C99.4711 9.84957 90.7989 18.5301 90.7989 29.238V29.8934C92.3911 27.8017 94.0709 25.8089 95.8586 23.9419C99.9773 19.6404 104.667 16.0072 110.169 13.3576Z" fill="#191A23"/>
<path d="M90.7989 32.8712C92.7654 30.127 94.8624 27.5413 97.1351 25.1677C100.92 21.2148 105.193 17.8499 110.169 15.3322V76.0963C110.169 86.8043 101.496 95.4848 90.7989 95.4848V32.8712Z" fill="#191A23"/>
<path d="M85.3455 37.9111C81.9006 32.5444 75.8839 28.9891 69.0377 28.9891V69.0947C70.8183 65.6869 72.55 62.1861 74.2929 58.6628L74.2964 58.6557C74.5164 58.2108 74.7367 57.7656 74.9572 57.3202C78.2248 50.72 81.5568 44.0761 85.3455 37.9111Z" fill="#191A23"/>
<path d="M69.0377 72.8645C71.3868 68.5295 73.6106 64.033 75.8323 59.5409C76.0687 59.0628 76.3052 58.5847 76.5418 58.1069C79.6723 51.7837 82.826 45.5004 86.3474 39.6671C87.6652 42.286 88.4074 45.245 88.4074 48.3774V113C77.7099 113 69.0377 104.319 69.0377 93.6115V72.8645Z" fill="#191A23"/>
<path d="M66.6462 73.5467V46.0622C55.9485 46.0622 47.2763 54.7425 47.2763 65.4505V97.5253C50.1788 95.4478 52.8092 93.0057 55.2371 90.2824C59.5585 85.4354 63.2328 79.7056 66.6462 73.5467Z" fill="#191A23"/>
<path d="M47.2763 99.6796C50.7016 97.3745 53.764 94.5942 56.5564 91.4621C60.3306 87.2287 63.6159 82.3471 66.6462 77.1329V87.3563C66.6462 98.0641 57.974 106.745 47.2763 106.745V99.6796Z" fill="#191A23"/>
<path d="M43.8945 99.7031C44.5273 97.7875 44.8698 95.7395 44.8698 93.6115V79.0027C34.1721 79.0027 25.5 87.6832 25.5 98.3912V104.979C32.6756 104.579 38.6995 102.691 43.8945 99.7031Z" fill="#191A23"/>
<path d="M25.5 106.753C32.1356 106.395 37.8371 104.811 42.825 102.291C39.6436 108.641 33.0803 113 25.5 113V106.753Z" fill="#191A23"/>
<path d="M27.2311 145.525V149.923C25.1646 147.035 21.0316 145 16.5653 145C6.29952 145 0.5 152.221 0.5 162.067C0.5 171.913 6.29952 179.134 16.632 179.134C21.3649 179.134 25.6312 177.23 27.2311 174.408V179.791C27.2311 183.795 24.4313 186.683 20.565 186.683H5.03296V192H21.2316C28.5643 192 33.6972 187.142 33.6972 180.184V145.525H27.2311ZM17.3653 173.554C11.1658 173.554 7.09945 169.025 7.09945 162.067C7.09945 155.109 11.1658 150.58 17.3653 150.58C23.6314 150.58 27.6977 155.109 27.6977 162.067C27.6977 169.025 23.6314 173.554 17.3653 173.554Z" fill="#191A23"/>
<path d="M61.6657 151.039V145.525H57.5994C52.8665 145.525 50.2 147.494 48.6668 151.892V145.525H42.2007V178.609H48.6668V163.642C48.6668 156.422 50.6666 151.039 56.7995 151.039H61.6657Z" fill="#191A23"/>
<path d="M79.0955 145C71.1628 145 65.1634 149.858 64.6301 156.356H70.6296C70.8295 153.008 74.2293 150.12 78.8955 150.12C84.0951 150.12 87.0282 152.877 87.0282 156.881C87.0282 158.063 86.2949 158.851 84.7617 158.851H77.7623C69.8296 158.851 64.6967 162.789 64.6967 169.156C64.6967 175.064 69.2297 179.134 76.0958 179.134C81.162 179.134 85.4283 176.771 87.0282 173.226V178.609H93.4943V157.275C93.4943 149.923 87.7615 145 79.0955 145ZM77.3623 174.08C73.6293 174.08 71.0962 172.045 71.0962 169.025C71.0962 165.546 73.9626 163.314 78.3623 163.314H87.0282V164.102C87.0282 170.207 83.4952 174.08 77.3623 174.08Z" fill="#191A23"/>
<path d="M112.784 179.134C120.383 179.134 125.383 175.261 125.383 169.222C125.383 154.124 106.184 162.527 106.184 154.321C106.184 151.761 108.518 150.054 111.984 150.054C114.85 150.054 118.583 151.564 119.05 155.372H125.116C124.783 149.135 119.583 145 111.984 145C104.985 145 100.052 148.807 100.052 154.518C100.052 168.631 119.117 160.557 119.117 169.353C119.117 171.782 116.65 173.817 112.784 173.817C108.451 173.817 105.651 171.651 105.251 167.844H99.185C99.6516 174.802 104.918 179.134 112.784 179.134Z" fill="#191A23"/>
<path d="M143.901 179.134C151.5 179.134 156.5 175.261 156.5 169.222C156.5 154.124 137.302 162.527 137.302 154.321C137.302 151.761 139.635 150.054 143.101 150.054C145.968 150.054 149.701 151.564 150.167 155.372H156.233C155.9 149.135 150.7 145 143.101 145C136.102 145 131.169 148.807 131.169 154.518C131.169 168.631 150.234 160.557 150.234 169.353C150.234 171.782 147.767 173.817 143.901 173.817C139.568 173.817 136.768 171.651 136.368 167.844H130.302C130.769 174.802 136.035 179.134 143.901 179.134Z" fill="#191A23"/>
</svg>
