<svg viewBox="0 0 21 20" fill="none" xmlns="http://www.w3.org/2000/svg">
<g id="Iconly/Regular/Light/Delete">
<g id="Delete">
<path
        id="Stroke 1"
        d="M16.854 7.89017C16.854 7.89017 16.4015 13.5027 16.139 15.8668C16.014 16.996 15.3165 17.6577 14.174 17.6785C11.9999 17.7177 9.8232 17.7202 7.64986 17.6743C6.5507 17.6518 5.86486 16.9818 5.74236 15.8727C5.4782 13.4877 5.0282 7.89017 5.0282 7.89017"
        stroke="currentColor"
        stroke-width="2"
        stroke-linecap="round"
        stroke-linejoin="round"
      />
<path
        id="Stroke 3"
        d="M18.0068 5.19975H3.87512"
        stroke="currentColor"
        stroke-width="2"
        stroke-linecap="round"
        stroke-linejoin="round"
      />
<path
        id="Stroke 5"
        d="M15.2837 5.19975C14.6296 5.19975 14.0662 4.73725 13.9379 4.09642L13.7354 3.08308C13.6104 2.61558 13.1871 2.29225 12.7046 2.29225H9.17707C8.69457 2.29225 8.27123 2.61558 8.14623 3.08308L7.94373 4.09642C7.8154 4.73725 7.25207 5.19975 6.5979 5.19975"
        stroke="currentColor"
        stroke-width="2"
        stroke-linecap="round"
        stroke-linejoin="round"
      />
</g>
</g>
</svg>
